<svg xmlns="http://www.w3.org/2000/svg" width="1365.333" height="1365.333" version="1.0" viewBox="0 0 1024 1024"><path d="M490.5 185.6c-21.8 3.9-40.3 12.2-59.5 26.3-7.8 5.8-76.7 73.4-94.4 92.7-20.2 21.9-23.1 35-13 57.2 1.8 4.1 5.3 10.2 7.8 13.6 2.5 3.5 39.5 40.9 84.3 85.1 43.9 43.4 79.9 79.2 80.1 79.5.1.4-11.8 12.4-26.6 26.7l-26.8 26.1-36.4-35.6c-20.1-19.7-36.6-36-36.8-36.5-.2-.4.3-.7 1.2-.7 2.1 0 9.4-6.6 11.3-10.3 3.7-7.2-.4-18.6-11-30.3-13.6-15-28.1-13.8-46.1 4-9.7 9.5-13.2 15.2-15.1 24.4-1.9 8.6-1.9 13.4 0 20.7 3 11.5 5.9 14.9 50.2 59.5 23.3 23.4 42.3 43 42.3 43.5s-10.1 11.1-22.4 23.5c-24 24.2-27.9 29.5-31 41.6-2 7.8-2 21-.1 29.2 3.2 13.4 4.9 15.7 31.9 42.6 13.8 13.7 29.8 29.4 35.6 34.9 26.4 25 54.3 37 89 38.3 30.5 1.2 56.6-6.3 83.3-23.9 11.4-7.5 15-10.8 55.4-51.1 29.9-29.9 44.4-45.1 47.2-49.5 5.7-8.9 8.1-17.3 8.1-28 0-14.5-3.3-24.6-11.1-34.4-2.1-2.7-40.1-40.9-84.4-85l-80.6-80.1 10.3-10.4c5.7-5.7 18.3-18 28.1-27.4l17.7-17 11.3 10.5c6.1 5.8 23.1 22.2 37.7 36.5l26.5 25.9-5.7 5.2c-13.7 12.5-12.7 22.7 3.6 39.9 6.6 7 11.5 9.5 18.6 9.5 6.4 0 10-1.6 18.7-8.5 14.3-11.3 22.6-24.2 24.5-38 1.4-9.4 0-16.1-5.4-27.1-3.9-7.9-5.5-9.7-40.2-44.2-34.2-34.1-40.2-39.9-47.1-45.3l-2.9-2.3 22.6-22.7c12.4-12.5 23.7-24.5 25.1-26.7 4.8-7.9 7.9-18.3 8.4-29 .8-16.3-3.2-28.6-13.4-41.2-5.6-7-48.5-49.8-58.3-58.2-27.5-23.7-57.8-35.3-91.8-35-7 0-16.3.7-20.7 1.5zm41 53.8c9 2.5 19.2 7.7 26.5 13.5 8.9 7.2 54.9 51.9 57.2 55.6 4.3 7.1 1.5 12-18.4 31.4-8.8 8.6-16.4 15.8-16.9 16-.6.1-10.1-8.6-21.2-19.6-11.1-10.9-22.4-21.3-25.2-23.1-13.4-8.8-29.6-8-44 2.2-2.4 1.8-19.3 17.8-37.6 35.7-18.2 17.8-33.7 32.4-34.5 32.4-1.6 0-41.4-38.3-41.4-39.9 0-1.5 77.2-78.7 85.5-85.5 14.1-11.7 24.5-17 38.3-19.6 9.3-1.7 23.2-1.3 31.7.9zm-5.7 143.9 12.4 12.4-26.7 26.4c-14.7 14.5-27.1 26.6-27.7 26.8-1 .3-25.8-23.7-25.8-25 0-.8 53.9-52.9 54.8-52.9.4 0 6.3 5.6 13 12.3zM549 593.5l13.5 13.5-22 21.3c-12.1 11.7-24.1 23.2-26.7 25.6l-4.8 4.4-13.5-12.8c-7.4-7-13.5-12.9-13.5-13.1 0-.5 52.4-52.3 53-52.4.3 0 6.6 6.1 14 13.5zm74.5 73.3c10.7 10.6 19.5 20.1 19.5 21 .1 2.7-78.1 79.5-86.8 85.3-23.6 15.8-48.1 19.5-72.1 11.1-14.1-5.1-22.5-11.7-59.3-47.9-17.7-17.3-19.8-19.6-19.8-22.5 0-5.6 4.3-10.8 25.3-30.8l11.7-11.2 19.3 18.8c16.8 16.5 20.3 19.4 27.3 23 10.4 5.3 19.9 7.1 28.8 5.5 12.4-2.4 14.4-3.9 50.5-39.2 18.5-18.1 34.2-32.7 34.8-32.6.7.1 10.1 8.9 20.8 19.5z"/><path d="M698 339.8c-14.8 4.9-24 13-24 21 0 6.6 4.8 13.2 21.4 29.2 31.9 30.6 71.3 70.6 75.8 77 5.8 8.1 10.9 18.5 13.4 27 1.4 5 1.9 9.6 1.8 20 0 11.8-.4 14.5-2.7 21.5-5.2 15.8-7.1 18-45.7 56.5-39.2 38.9-40.3 40.4-38.1 48.6 2.2 8.4 13.2 21.8 20.7 25.4 5.9 2.9 13 2.4 20.9-1.4 9.6-4.7 64.9-58.7 75.4-73.6 10.2-14.5 18.5-33.5 21.8-49.7 2.6-13.2 2.4-41.5-.5-54.3-5-22.5-12.6-39.4-25.4-56.5-11.6-15.6-82.1-86.2-89.3-89.6-6.8-3.1-17.9-3.6-25.5-1.1zM278.3 367.9c-2.8.9-6.9 3-9 4.6-7.1 5.3-53.4 51.9-59.2 59.6-6.7 8.9-16.9 28.3-20.5 39-4.5 13.5-5.9 26-5.3 46.3.4 14.9 1 19.9 3.1 28.1 4.6 18.1 12.1 34 22.7 48.2 8.8 11.8 30 34.5 46 49.3 6.8 6.3 19 17.9 27 25.7 9.5 9.2 16.2 15 19 16.2 13.8 6.1 31.9 1.9 43.2-9.9 3.3-3.5 3.7-4.5 3.7-9 0-9.3-3-13.4-25.3-35-35.2-34.1-65.2-64.3-70-70.7-11.7-15.4-16.8-29.6-16.9-47.3 0-16.2 4-29.7 12.4-41.3 5.1-7 22.6-24.6 45.5-46 24.9-23.2 27.1-26.9 22.3-37.5-2.5-5.6-12.2-15.7-18.5-19.3-6-3.4-12.3-3.8-20.2-1z"/></svg>