<?xml version="1.0" standalone="no"?>
<!DOCTYPE svg PUBLIC "-//W3C//DTD SVG 20010904//EN"
 "http://www.w3.org/TR/2001/REC-SVG-20010904/DTD/svg10.dtd">
<svg version="1.0" xmlns="http://www.w3.org/2000/svg"
 width="1024.000000pt" height="1024.000000pt" viewBox="0 0 1024.000000 1024.000000"
 preserveAspectRatio="xMidYMid meet">

<g transform="translate(0.000000,1024.000000) scale(0.100000,-0.100000)"
fill="#000000" stroke="none">
<path d="M4905 8384 c-218 -39 -403 -122 -595 -263 -78 -58 -767 -734 -944
-927 -202 -219 -231 -350 -130 -572 18 -41 53 -102 78 -136 25 -35 395 -409
843 -851 439 -434 799 -792 801 -795 1 -4 -118 -124 -266 -267 l-268 -261
-364 356 c-201 197 -366 360 -368 365 -2 4 3 7 12 7 21 0 94 66 113 103 37 72
-4 186 -110 303 -136 150 -281 138 -461 -40 -97 -95 -132 -152 -151 -244 -19
-86 -19 -134 0 -207 30 -115 59 -149 502 -595 233 -234 423 -430 423 -435 0
-5 -101 -111 -224 -235 -240 -242 -279 -295 -310 -416 -20 -78 -20 -210 -1
-292 32 -134 49 -157 319 -426 138 -137 298 -294 356 -349 264 -250 543 -370
890 -383 305 -12 566 63 833 239 114 75 150 108 554 511 299 299 444 451 472
495 57 89 81 173 81 280 0 145 -33 246 -111 344 -21 27 -401 409 -844 850
l-806 801 103 104 c57 57 183 180 281 274 l177 170 113 -105 c61 -58 231 -222
377 -365 l265 -259 -57 -52 c-137 -125 -127 -227 36 -399 66 -70 115 -95 186
-95 64 0 100 16 187 85 143 113 226 242 245 380 14 94 0 161 -54 271 -39 79
-55 97 -402 442 -342 341 -402 399 -471 453 l-29 23 226 227 c124 125 237 245
251 267 48 79 79 183 84 290 8 163 -32 286 -134 412 -56 70 -485 498 -583 582
-275 237 -578 353 -918 350 -70 0 -163 -7 -207 -15z m410 -538 c90 -25 192
-77 265 -135 89 -72 549 -519 572 -556 43 -71 15 -120 -184 -314 -88 -86 -164
-158 -169 -160 -6 -1 -101 86 -212 196 -111 109 -224 213 -252 231 -134 88
-296 80 -440 -22 -24 -18 -193 -178 -376 -357 -182 -178 -337 -324 -345 -324
-16 0 -414 383 -414 399 0 15 772 787 855 855 141 117 245 170 383 196 93 17
232 13 317 -9z m-57 -1439 l124 -124 -267 -264 c-147 -145 -271 -266 -277
-268 -10 -3 -258 237 -258 250 0 8 539 529 548 529 4 0 63 -56 130 -123z m232
-2102 l135 -135 -220 -213 c-121 -117 -241 -232 -267 -256 l-48 -44 -135 128
c-74 70 -135 129 -135 131 0 5 524 523 530 524 3 0 66 -61 140 -135z m745
-733 c107 -106 195 -201 195 -210 1 -27 -781 -795 -868 -853 -236 -158 -481
-195 -721 -111 -141 51 -225 117 -593 479 -177 173 -198 196 -198 225 0 56 43
108 253 308 l117 112 193 -188 c168 -165 203 -194 273 -230 104 -53 199 -71
288 -55 124 24 144 39 505 392 185 181 342 327 348 326 7 -1 101 -89 208 -195z"/>
<path d="M6980 6842 c-148 -49 -240 -130 -240 -210 0 -66 48 -132 214 -292
319 -306 713 -706 758 -770 58 -81 109 -185 134 -270 14 -50 19 -96 18 -200 0
-118 -4 -145 -27 -215 -52 -158 -71 -180 -457 -565 -392 -389 -403 -404 -381
-486 22 -84 132 -218 207 -254 59 -29 130 -24 209 14 96 47 649 587 754 736
102 145 185 335 218 497 26 132 24 415 -5 543 -50 225 -126 394 -254 565 -116
156 -821 862 -893 896 -68 31 -179 36 -255 11z"/>
<path d="M2783 6561 c-28 -9 -69 -30 -90 -46 -71 -53 -534 -519 -592 -596 -67
-89 -169 -283 -205 -390 -45 -135 -59 -260 -53 -463 4 -149 10 -199 31 -281
46 -181 121 -340 227 -482 88 -118 300 -345 460 -493 68 -63 190 -179 270
-257 95 -92 162 -150 190 -162 138 -61 319 -19 432 99 33 35 37 45 37 90 0 93
-30 134 -253 350 -352 341 -652 643 -700 707 -117 154 -168 296 -169 473 0
162 40 297 124 413 51 70 226 246 455 460 249 232 271 269 223 375 -25 56
-122 157 -185 193 -60 34 -123 38 -202 10z"/>
</g>
</svg>
